<svg width="24" height="24" viewBox="0 0 24 24" fill="none" xmlns="http://www.w3.org/2000/svg">
<circle cx="12" cy="12" r="12" fill="white"/>
<path d="M12 22C17.5228 22 22 17.5228 22 12C22 6.47715 17.5228 2 12 2C6.47715 2 2 6.47715 2 12C2 17.5228 6.47715 22 12 22Z" fill="#F0F0F0"/>
<path d="M4.06721 5.91203C3.2817 6.93402 2.6894 8.11195 2.34451 9.3916H7.54678L4.06721 5.91203ZM21.6555 9.3916C21.3106 8.11199 20.7183 6.93406 19.9328 5.91207L16.4533 9.3916H21.6555ZM2.34451 14.609C2.68943 15.8886 3.28174 17.0665 4.06721 18.0885L7.54666 14.609H2.34451ZM18.0882 4.06746C17.0662 3.28195 15.8883 2.68965 14.6087 2.34473V7.54695L18.0882 4.06746ZM5.91182 19.933C6.93381 20.7185 8.11174 21.3108 9.39135 21.6557V16.4536L5.91182 19.933ZM9.39131 2.34473C8.1117 2.68965 6.93377 3.28195 5.91182 4.06742L9.39131 7.54691V2.34473ZM14.6087 21.6557C15.8883 21.3108 17.0663 20.7185 18.0882 19.933L14.6087 16.4536V21.6557ZM16.4533 14.609L19.9328 18.0885C20.7183 17.0666 21.3106 15.8886 21.6555 14.609H16.4533Z" fill="#0052B4"/>
<path d="M21.9154 10.6957H13.3044H13.3044V2.08465C12.8774 2.02906 12.4421 2 12 2C11.5579 2 11.1226 2.02906 10.6957 2.08465V10.6956V10.6956H2.08465C2.02906 11.1226 2 11.5579 2 12C2 12.4421 2.02906 12.8774 2.08465 13.3043H10.6956H10.6956V21.9154C11.1226 21.9709 11.5579 22 12 22C12.4421 22 12.8774 21.971 13.3043 21.9154V13.3044V13.3044H21.9154C21.9709 12.8774 22 12.4421 22 12C22 11.5579 21.9709 11.1226 21.9154 10.6957Z" fill="#D80027"/>
<path d="M14.6087 14.6089L19.0711 19.0712C19.2763 18.8661 19.4721 18.6516 19.6589 18.4292L15.8385 14.6088H14.6087V14.6089ZM9.39131 14.6089H9.39123L4.92893 19.0712C5.13409 19.2764 5.34858 19.4722 5.57092 19.659L9.39131 15.8385V14.6089ZM9.39131 9.3915V9.39142L4.92897 4.92904C4.72373 5.1342 4.52795 5.34869 4.34116 5.57104L8.16159 9.39146H9.39131V9.3915ZM14.6087 9.3915L19.0711 4.92908C18.866 4.72385 18.6515 4.52807 18.4291 4.34131L14.6087 8.16174V9.3915V9.3915Z" fill="#D80027"/>
</svg>
