<svg width="24" height="24" viewBox="0 0 24 24" fill="none" xmlns="http://www.w3.org/2000/svg">
<circle cx="12" cy="12" r="12" fill="white"/>
<path d="M12 22C17.5228 22 22 17.5228 22 12C22 6.47715 17.5228 2 12 2C6.47715 2 2 6.47715 2 12C2 17.5228 6.47715 22 12 22Z" fill="#F0F0F0"/>
<path d="M21.9154 10.6957H13.3044H13.3044V2.08465C12.8774 2.02906 12.4421 2 12 2C11.5579 2 11.1226 2.02906 10.6957 2.08465V10.6956V10.6956H2.08465C2.02906 11.1226 2 11.5579 2 12C2 12.4421 2.02906 12.8774 2.08465 13.3043H10.6956H10.6956V21.9154C11.1226 21.9709 11.5579 22 12 22C12.4421 22 12.8774 21.971 13.3043 21.9154V13.3044V13.3044H21.9154C21.9709 12.8774 22 12.4421 22 12C22 11.5579 21.9709 11.1226 21.9154 10.6957Z" fill="#D80027"/>
<path d="M8.08695 6.7824V5.47803H6.78262V6.7824H5.47824V8.08674H6.78262V9.39107H8.08695V8.08674H9.39129V6.7824H8.08695Z" fill="#D80027"/>
<path d="M17.2174 6.7824V5.47803H15.9131V6.7824H14.6087V8.08674H15.9131V9.39107H17.2174V8.08674H18.5218V6.7824H17.2174Z" fill="#D80027"/>
<path d="M8.08695 15.9127V14.6084H6.78262V15.9127H5.47824V17.2171H6.78262V18.5214H8.08695V17.2171H9.39129V15.9127H8.08695Z" fill="#D80027"/>
<path d="M17.2174 15.9127V14.6084H15.9131V15.9127H14.6087V17.2171H15.9131V18.5214H17.2174V17.2171H18.5218V15.9127H17.2174Z" fill="#D80027"/>
</svg>
