<svg width="16" height="16" viewBox="0 0 16 16" fill="none" xmlns="http://www.w3.org/2000/svg">
<path d="M12.6666 1.33333H3.33325C2.80282 1.33333 2.29411 1.54404 1.91904 1.91911C1.54397 2.29419 1.33325 2.8029 1.33325 3.33333V4.11333C1.33316 4.38862 1.3899 4.66097 1.49992 4.91333V4.95333C1.59411 5.16731 1.72751 5.36177 1.89325 5.52666L5.99992 9.60666V14C5.99969 14.1133 6.02834 14.2248 6.08317 14.3239C6.13799 14.4231 6.21718 14.5066 6.31325 14.5667C6.41935 14.6324 6.54177 14.6671 6.66659 14.6667C6.77095 14.666 6.8737 14.6409 6.96659 14.5933L9.63325 13.26C9.7432 13.2046 9.83565 13.1198 9.90037 13.0151C9.96509 12.9104 9.99955 12.7898 9.99992 12.6667V9.60666L14.0799 5.52666C14.2457 5.36177 14.3791 5.16731 14.4733 4.95333V4.91333C14.5925 4.66295 14.6583 4.39051 14.6666 4.11333V3.33333C14.6666 2.8029 14.4559 2.29419 14.0808 1.91911C13.7057 1.54404 13.197 1.33333 12.6666 1.33333ZM8.85992 8.85999C8.79813 8.92229 8.74925 8.99617 8.71607 9.07739C8.6829 9.15862 8.66608 9.24559 8.66659 9.33333V12.2533L7.33325 12.92V9.33333C7.33376 9.24559 7.31694 9.15862 7.28377 9.07739C7.25059 8.99617 7.20171 8.92229 7.13992 8.85999L3.60659 5.33333H12.3933L8.85992 8.85999ZM13.3333 3.99999H2.66659V3.33333C2.66659 3.15652 2.73682 2.98695 2.86185 2.86192C2.98687 2.7369 3.15644 2.66666 3.33325 2.66666H12.6666C12.8434 2.66666 13.013 2.7369 13.138 2.86192C13.263 2.98695 13.3333 3.15652 13.3333 3.33333V3.99999Z" fill="white"/>
</svg>
