<svg width="16" height="16" viewBox="0 0 16 16" fill="none" xmlns="http://www.w3.org/2000/svg">
<path d="M4.66666 6.1133C4.79157 5.98913 4.96054 5.91943 5.13666 5.91943C5.31278 5.91943 5.48175 5.98913 5.60666 6.1133L7.99999 8.4733L10.36 6.1133C10.4849 5.98913 10.6539 5.91943 10.83 5.91943C11.0061 5.91943 11.1751 5.98913 11.3 6.1133C11.3625 6.17527 11.4121 6.249 11.4459 6.33024C11.4798 6.41148 11.4972 6.49862 11.4972 6.58663C11.4972 6.67464 11.4798 6.76177 11.4459 6.84301C11.4121 6.92425 11.3625 6.99799 11.3 7.05996L8.47333 9.88663C8.41135 9.94911 8.33762 9.99871 8.25638 10.0326C8.17514 10.0664 8.088 10.0838 7.99999 10.0838C7.91199 10.0838 7.82485 10.0664 7.74361 10.0326C7.66237 9.99871 7.58864 9.94911 7.52666 9.88663L4.66666 7.05996C4.60418 6.99799 4.55458 6.92425 4.52073 6.84301C4.48689 6.76177 4.46946 6.67464 4.46946 6.58663C4.46946 6.49862 4.48689 6.41148 4.52073 6.33024C4.55458 6.249 4.60418 6.17527 4.66666 6.1133Z" fill="#131313"/>
</svg>
