<svg width="18" height="18" viewBox="0 0 18 18" fill="none" xmlns="http://www.w3.org/2000/svg">
<path d="M8.57992 1.5C6.65721 1.50548 4.81004 2.24919 3.41992 3.5775V2.25C3.41992 2.05109 3.3409 1.86032 3.20025 1.71967C3.0596 1.57902 2.86883 1.5 2.66992 1.5C2.47101 1.5 2.28024 1.57902 2.13959 1.71967C1.99894 1.86032 1.91992 2.05109 1.91992 2.25V5.625C1.91992 5.82391 1.99894 6.01468 2.13959 6.15533C2.28024 6.29598 2.47101 6.375 2.66992 6.375H6.04492C6.24383 6.375 6.4346 6.29598 6.57525 6.15533C6.7159 6.01468 6.79492 5.82391 6.79492 5.625C6.79492 5.42609 6.7159 5.23532 6.57525 5.09467C6.4346 4.95402 6.24383 4.875 6.04492 4.875H4.24492C4.9287 4.15276 5.7813 3.61182 6.72602 3.30085C7.67073 2.98989 8.67794 2.91864 9.65702 3.09353C10.6361 3.26841 11.5564 3.68394 12.335 4.30274C13.1136 4.92154 13.7262 5.72419 14.1177 6.6385C14.5092 7.5528 14.6672 8.55008 14.5776 9.54062C14.488 10.5312 14.1535 11.4839 13.6044 12.3131C13.0552 13.1423 12.3085 13.822 11.4314 14.291C10.5544 14.76 9.5745 15.0037 8.57992 15C8.38101 15 8.19024 15.079 8.04959 15.2197C7.90894 15.3603 7.82992 15.5511 7.82992 15.75C7.82992 15.9489 7.90894 16.1397 8.04959 16.2803C8.19024 16.421 8.38101 16.5 8.57992 16.5C10.569 16.5 12.4767 15.7098 13.8832 14.3033C15.2897 12.8968 16.0799 10.9891 16.0799 9C16.0799 7.01088 15.2897 5.10322 13.8832 3.6967C12.4767 2.29018 10.569 1.5 8.57992 1.5ZM8.57992 6C8.38101 6 8.19024 6.07902 8.04959 6.21967C7.90894 6.36032 7.82992 6.55109 7.82992 6.75V9C7.82992 9.19891 7.90894 9.38968 8.04959 9.53033C8.19024 9.67098 8.38101 9.75 8.57992 9.75H10.0799C10.2788 9.75 10.4696 9.67098 10.6103 9.53033C10.7509 9.38968 10.8299 9.19891 10.8299 9C10.8299 8.80109 10.7509 8.61032 10.6103 8.46967C10.4696 8.32902 10.2788 8.25 10.0799 8.25H9.32992V6.75C9.32992 6.55109 9.2509 6.36032 9.11025 6.21967C8.9696 6.07902 8.77883 6 8.57992 6Z" fill="#131313"/>
</svg>
