<svg width="24" height="24" viewBox="0 0 24 24" fill="none" xmlns="http://www.w3.org/2000/svg">
<path d="M2.293 11.293L10.293 3.29298C10.4328 3.15312 10.611 3.05788 10.805 3.01928C10.9989 2.98069 11.2 3.00049 11.3827 3.07616C11.5654 3.15184 11.7216 3.28 11.8315 3.44444C11.9414 3.60888 12 3.80221 12 3.99998V7.54489C14.7317 7.79774 17.2707 9.06084 19.1203 11.087C20.9698 13.1132 21.9967 15.7566 22 18.5V20C22 20.2076 21.9354 20.4102 21.815 20.5794C21.6947 20.7487 21.5247 20.8763 21.3285 20.9445C21.1324 21.0128 20.9199 21.0182 20.7205 20.9602C20.5211 20.9021 20.3447 20.7834 20.2158 20.6206C19.2362 19.4555 18.0342 18.4974 16.68 17.8021C15.3259 17.1068 13.8468 16.6884 12.3291 16.5713C12.2793 16.5649 12.1543 16.5552 12 16.5454V20C12 20.1977 11.9414 20.3911 11.8315 20.5555C11.7216 20.7199 11.5654 20.8481 11.3827 20.9238C11.2 20.9995 10.9989 21.0193 10.805 20.9807C10.611 20.9421 10.4328 20.8468 10.293 20.707L2.293 12.707C2.20013 12.6141 2.12646 12.5039 2.07619 12.3826C2.02593 12.2613 2.00006 12.1313 2.00006 12C2.00006 11.8687 2.02593 11.7386 2.07619 11.6173C2.12646 11.496 2.20013 11.3858 2.293 11.293ZM10 17.5859V15.5C9.99997 15.3686 10.0258 15.2386 10.0761 15.1172C10.1263 14.9959 10.2 14.8857 10.2928 14.7928C10.3857 14.6999 10.4959 14.6263 10.6173 14.576C10.7386 14.5258 10.8687 14.4999 11 14.5C11.2549 14.5 12.2959 14.5493 12.5615 14.585C15.2569 14.8332 17.8226 15.8573 19.9482 17.5332C19.7071 15.3275 18.6608 13.2883 17.0097 11.806C15.3586 10.3238 13.2188 9.50269 11 9.49997C10.8687 9.50001 10.7386 9.47417 10.6173 9.42392C10.4959 9.37368 10.3857 9.30002 10.2928 9.20716C10.2 9.11429 10.1263 9.00404 10.0761 8.8827C10.0258 8.76136 9.99997 8.63131 10 8.49997V6.41403L4.41406 12L10 17.5859Z" fill="#343434"/>
</svg>
