<svg width="24" height="24" viewBox="0 0 24 24" fill="none" xmlns="http://www.w3.org/2000/svg">
<path d="M3.811 10.233L7.81429 9.42162C8.09155 9.36543 8.33202 9.19445 8.47614 8.95104L11.1393 4.45328C11.5266 3.79927 12.473 3.79927 12.8603 4.45328L15.5234 8.95104C15.6676 9.19445 15.908 9.36543 16.1853 9.42162L20.1886 10.233C20.9673 10.3908 21.2598 11.3499 20.7017 11.9154L17.3716 15.2899C17.139 15.5256 17.0382 15.8611 17.1023 16.186L17.8525 19.987C18.0139 20.8046 17.1629 21.4493 16.4195 21.0726L12.4518 19.0624C12.1677 18.9184 11.832 18.9184 11.5478 19.0624L7.58011 21.0727C6.83665 21.4493 5.98569 20.8046 6.14707 19.987L6.89727 16.186C6.96138 15.8611 6.86054 15.5256 6.62797 15.2899L3.29786 11.9154C2.73977 11.3499 3.03229 10.3908 3.811 10.233Z" fill="#FED67E"/>
</svg>
