<svg width="76" height="76" viewBox="0 0 76 76" fill="none" xmlns="http://www.w3.org/2000/svg">
<rect x="1.5" y="1.5" width="73" height="73" rx="36.5" fill="#ECE5D1" stroke="white" stroke-width="3"/>
<path d="M41.71 38.7099C42.6904 37.9385 43.406 36.8808 43.7572 35.6838C44.1085 34.4868 44.0779 33.2101 43.6698 32.0313C43.2617 30.8526 42.4963 29.8303 41.4801 29.1067C40.4639 28.3832 39.2474 27.9944 38 27.9944C36.7525 27.9944 35.5361 28.3832 34.5199 29.1067C33.5037 29.8303 32.7383 30.8526 32.3302 32.0313C31.9221 33.2101 31.8915 34.4868 32.2428 35.6838C32.594 36.8808 33.3096 37.9385 34.29 38.7099C32.6101 39.3829 31.1443 40.4992 30.0489 41.9398C28.9535 43.3804 28.2696 45.0912 28.07 46.8899C28.0556 47.0212 28.0671 47.1541 28.104 47.2809C28.1409 47.4078 28.2025 47.5261 28.2851 47.6292C28.452 47.8374 28.6948 47.9707 28.96 47.9999C29.2252 48.0291 29.4912 47.9517 29.6993 47.7848C29.9075 47.6179 30.0408 47.3751 30.07 47.1099C30.2896 45.1551 31.2217 43.3497 32.6882 42.0387C34.1547 40.7277 36.0529 40.0029 38.02 40.0029C39.9871 40.0029 41.8852 40.7277 43.3518 42.0387C44.8183 43.3497 45.7504 45.1551 45.97 47.1099C45.9972 47.3556 46.1144 47.5825 46.2991 47.7469C46.4838 47.9113 46.7228 48.0014 46.97 47.9999H47.08C47.3421 47.9697 47.5817 47.8372 47.7466 47.6311C47.9114 47.4251 47.9881 47.1622 47.96 46.8999C47.7595 45.0961 47.0719 43.3809 45.9708 41.9381C44.8698 40.4953 43.3969 39.3794 41.71 38.7099ZM38 37.9999C37.2089 37.9999 36.4355 37.7653 35.7777 37.3258C35.1199 36.8862 34.6072 36.2615 34.3045 35.5306C34.0017 34.7997 33.9225 33.9954 34.0769 33.2195C34.2312 32.4436 34.6122 31.7309 35.1716 31.1715C35.731 30.612 36.4437 30.2311 37.2196 30.0767C37.9956 29.9224 38.7998 30.0016 39.5307 30.3044C40.2616 30.6071 40.8863 31.1198 41.3259 31.7776C41.7654 32.4354 42 33.2088 42 33.9999C42 35.0607 41.5786 36.0782 40.8284 36.8283C40.0783 37.5785 39.0609 37.9999 38 37.9999Z" fill="#131313"/>
</svg>
