<svg width="24" height="24" viewBox="0 0 24 24" fill="none" xmlns="http://www.w3.org/2000/svg">
<path d="M6.08 11.62C6.12759 11.4973 6.19896 11.3851 6.29 11.29L11.29 6.29C11.3832 6.19676 11.4939 6.1228 11.6158 6.07234C11.7376 6.02188 11.8681 5.99591 12 5.99591C12.2663 5.99591 12.5217 6.1017 12.71 6.29C12.8032 6.38324 12.8772 6.49393 12.9277 6.61575C12.9781 6.73758 13.0041 6.86814 13.0041 7C13.0041 7.2663 12.8983 7.5217 12.71 7.71L9.41 11H17C17.2652 11 17.5196 11.1054 17.7071 11.2929C17.8946 11.4804 18 11.7348 18 12C18 12.2652 17.8946 12.5196 17.7071 12.7071C17.5196 12.8946 17.2652 13 17 13H9.41L12.71 16.29C12.8037 16.383 12.8781 16.4936 12.9289 16.6154C12.9797 16.7373 13.0058 16.868 13.0058 17C13.0058 17.132 12.9797 17.2627 12.9289 17.3846C12.8781 17.5064 12.8037 17.617 12.71 17.71C12.617 17.8037 12.5064 17.8781 12.3846 17.9289C12.2627 17.9797 12.132 18.0058 12 18.0058C11.868 18.0058 11.7373 17.9797 11.6154 17.9289C11.4936 17.8781 11.383 17.8037 11.29 17.71L6.29 12.71C6.19896 12.6149 6.12759 12.5028 6.08 12.38C5.97998 12.1365 5.97998 11.8635 6.08 11.62Z" fill="#131313"/>
</svg>
