<svg width="141" height="140" viewBox="0 0 141 140" fill="none" xmlns="http://www.w3.org/2000/svg">
<path d="M19.8867 57.7787C19.4088 59.7372 20.1178 61.4378 21.7771 61.8427C23.178 62.1846 24.2377 61.6218 25.405 59.673C26.1618 58.4022 26.561 58.1249 27.2546 58.2942C27.9754 58.4701 28.2713 59.1475 28.0456 60.0724C27.8165 61.0109 27.294 61.6759 26.5399 62.2268L27.5021 63.6578C28.4393 63.0651 29.3232 62.0414 29.7215 60.4093C30.2957 58.0564 29.4101 56.3704 27.6556 55.9422C25.9147 55.5174 24.9313 56.3582 23.9253 58.0005C23.1044 59.3565 22.7733 59.6504 22.1749 59.5044C21.5764 59.3583 21.3695 58.789 21.5587 58.0138C21.7445 57.2521 22.1623 56.6624 22.852 56.139L21.8938 54.8099C20.9025 55.447 20.2386 56.337 19.8867 57.7787Z" fill="#131313"/>
<path d="M30.5 37.1499L28.5082 39.5722L36.0022 45.7341L37.4605 43.9606L34.9625 41.9067L35.6293 41.0956C37.052 39.3654 37.2546 37.4658 35.5136 36.0342C33.8699 34.6827 32.0916 35.2142 30.5 37.1499ZM34.2288 40.1978L33.6864 40.8575L31.2317 38.8391L31.7474 38.2119C32.4676 37.336 33.2107 37.2038 34.0109 37.8618C34.9517 38.6353 34.8868 39.3976 34.2288 40.1978Z" fill="#131313"/>
<path d="M51.5403 21.8069L46.1416 24.308L50.2199 33.1112L55.6186 30.6101L54.9242 29.1111L51.6087 30.6471L50.5671 28.3987L53.2728 27.1452L52.596 25.6843L49.8903 26.9378L48.9134 24.8291L52.0129 23.3932L51.5403 21.8069Z" fill="#131313"/>
<path d="M72.0565 18.1236C69.5368 18.0859 67.6198 19.8774 67.5712 23.125C67.5215 26.4427 69.2725 28.2611 71.9322 28.3008C73.2761 28.321 74.335 27.7347 74.9885 27.1004L73.9863 25.7693C73.4059 26.1947 72.8407 26.5362 72.0708 26.5247C70.783 26.5055 69.9439 25.4988 69.9789 23.1611C70.0145 20.7813 70.8973 19.8004 72.1431 19.8191C72.8011 19.8289 73.3432 20.089 73.8829 20.5172L74.9942 19.2316C74.1926 18.5336 73.3163 18.1424 72.0565 18.1236Z" fill="#131313"/>
<path d="M94.8971 24.4617L92.8436 23.4347L88.5038 32.1119L90.5573 33.1389L94.8971 24.4617Z" fill="#131313"/>
<path d="M104.89 45.8858L106.38 47.8129L112.265 39.5632L110.561 37.3593L101.096 40.9796L102.552 42.8623L104.502 41.9739L106.232 44.2111L104.89 45.8858ZM106.06 41.2649L110.074 39.4527L107.31 42.8818L106.06 41.2649Z" fill="#131313"/>
<path d="M121.019 58.9969L120.541 56.7511L111.051 58.7682L112.265 64.4787L114.095 64.3331L113.309 60.6357L121.019 58.9969Z" fill="#131313"/>
<path d="M110.446 103.408C112.18 101.299 111.739 98.8156 109.295 96.8061C106.797 94.7522 104.318 94.8348 102.585 96.9435C100.842 99.063 101.283 101.546 103.738 103.565C106.236 105.619 108.703 105.527 110.446 103.408ZM109.149 102.341C108.322 103.346 107.159 103.261 105.267 101.705C103.364 100.14 103.046 99.027 103.882 98.0105C104.682 97.0372 105.862 97.1012 107.766 98.6661C109.658 100.222 109.967 101.346 109.149 102.341Z" fill="#131313"/>
<path d="M90.1317 107.408L88.0484 108.373L89.6668 111.867L87.1008 113.055L87.7894 114.542L90.3554 113.353L91.4382 115.69L88.4911 117.055L88.9637 118.642L94.2101 116.211L90.1317 107.408Z" fill="#131313"/>
<path d="M72.0112 112.265L69.7155 112.23L69.6579 116.08L66.8302 116.037L66.8057 117.675L69.6334 117.718L69.5948 120.293L66.3472 120.245L66.0847 121.879L71.8661 121.965L72.0112 112.265Z" fill="#131313"/>
<path d="M44.4228 115.047L49.7443 117.708L54.0842 109.031L48.7626 106.37L48.0236 107.847L51.2917 109.482L50.1833 111.698L47.5162 110.364L46.7961 111.804L49.4631 113.138L48.4235 115.216L45.3683 113.688L44.4228 115.047Z" fill="#131313"/>
<path d="M35.8705 94.2602L34.2861 92.2113L32.5263 96.687C31.3014 96.0413 30.324 96.0361 29.3162 96.8155C27.7214 98.0487 27.8101 99.6968 29.4202 101.779L31.3642 104.293L39.0392 98.358L37.6347 96.5417L34.6998 98.8112L34.1517 98.1024L35.8705 94.2602ZM31.2333 101.492L30.7281 100.838C30.0344 99.9412 30.0215 99.2609 30.7636 98.6871C31.572 98.062 32.2408 98.2173 32.8574 99.0147L33.4483 99.7789L31.2333 101.492Z" fill="#131313"/>
<circle cx="70.5" cy="69.5" r="30" stroke="#00B4FB"/>
</svg>
