<svg width="92" height="16" viewBox="0 0 92 16" fill="none" xmlns="http://www.w3.org/2000/svg">
<path d="M2.54079 6.822L5.20965 6.28108C5.39448 6.24362 5.5548 6.12963 5.65089 5.96736L7.42629 2.96885C7.68449 2.53284 8.31542 2.53284 8.57363 2.96885L10.349 5.96736C10.4452 6.12963 10.6054 6.24362 10.7903 6.28108L13.4592 6.822C13.9783 6.9272 14.1733 7.5666 13.8012 7.9436L11.5812 10.1933C11.4261 10.3504 11.3589 10.5741 11.4016 10.7907L11.9018 13.3247C12.0094 13.8697 11.442 14.2995 10.9464 14.0484L8.30129 12.7083C8.11189 12.6123 7.88809 12.6123 7.69863 12.7083L5.05353 14.0485C4.55789 14.2995 3.99058 13.8697 4.09817 13.3247L4.5983 10.7907C4.64105 10.5741 4.57382 10.3504 4.41877 10.1933L2.1987 7.9436C1.82664 7.5666 2.02165 6.9272 2.54079 6.822Z" fill="#FED67E"/>
<path d="M21.5408 6.822L24.2097 6.28108C24.3945 6.24362 24.5548 6.12963 24.6509 5.96736L26.4263 2.96885C26.6845 2.53284 27.3154 2.53284 27.5736 2.96885L29.349 5.96736C29.4452 6.12963 29.6054 6.24362 29.7903 6.28108L32.4592 6.822C32.9783 6.9272 33.1733 7.5666 32.8012 7.9436L30.5812 10.1933C30.4261 10.3504 30.3589 10.5741 30.4016 10.7907L30.9018 13.3247C31.0094 13.8697 30.442 14.2995 29.9464 14.0484L27.3013 12.7083C27.1119 12.6123 26.8881 12.6123 26.6986 12.7083L24.0535 14.0485C23.5579 14.2995 22.9906 13.8697 23.0982 13.3247L23.5983 10.7907C23.641 10.5741 23.5738 10.3504 23.4188 10.1933L21.1987 7.9436C20.8266 7.5666 21.0217 6.9272 21.5408 6.822Z" fill="#FED67E"/>
<path d="M40.5408 6.822L43.2097 6.28108C43.3945 6.24362 43.5548 6.12963 43.6509 5.96736L45.4263 2.96885C45.6845 2.53284 46.3154 2.53284 46.5736 2.96885L48.349 5.96736C48.4452 6.12963 48.6054 6.24362 48.7903 6.28108L51.4592 6.822C51.9783 6.9272 52.1733 7.5666 51.8012 7.9436L49.5812 10.1933C49.4261 10.3504 49.3589 10.5741 49.4016 10.7907L49.9018 13.3247C50.0094 13.8697 49.442 14.2995 48.9464 14.0484L46.3013 12.7083C46.1119 12.6123 45.8881 12.6123 45.6986 12.7083L43.0535 14.0485C42.5579 14.2995 41.9906 13.8697 42.0982 13.3247L42.5983 10.7907C42.641 10.5741 42.5738 10.3504 42.4188 10.1933L40.1987 7.9436C39.8266 7.5666 40.0217 6.9272 40.5408 6.822Z" fill="#FED67E"/>
<path d="M59.5408 6.822L62.2097 6.28108C62.3945 6.24362 62.5548 6.12963 62.6509 5.96736L64.4263 2.96885C64.6845 2.53284 65.3154 2.53284 65.5736 2.96885L67.349 5.96736C67.4452 6.12963 67.6054 6.24362 67.7903 6.28108L70.4592 6.822C70.9783 6.9272 71.1733 7.5666 70.8012 7.9436L68.5812 10.1933C68.4261 10.3504 68.3589 10.5741 68.4016 10.7907L68.9018 13.3247C69.0094 13.8697 68.442 14.2995 67.9464 14.0484L65.3013 12.7083C65.1119 12.6123 64.8881 12.6123 64.6986 12.7083L62.0535 14.0485C61.5579 14.2995 60.9906 13.8697 61.0982 13.3247L61.5983 10.7907C61.641 10.5741 61.5738 10.3504 61.4188 10.1933L59.1987 7.9436C58.8266 7.5666 59.0217 6.9272 59.5408 6.822Z" fill="#FED67E"/>
<path d="M78.5408 6.822L81.2097 6.28108C81.3945 6.24362 81.5548 6.12963 81.6509 5.96736L83.4263 2.96885C83.6845 2.53284 84.3154 2.53284 84.5736 2.96885L86.349 5.96736C86.4452 6.12963 86.6054 6.24362 86.7903 6.28108L89.4592 6.822C89.9783 6.9272 90.1733 7.5666 89.8012 7.9436L87.5812 10.1933C87.4261 10.3504 87.3589 10.5741 87.4016 10.7907L87.9018 13.3247C88.0094 13.8697 87.442 14.2995 86.9464 14.0484L84.3013 12.7083C84.1119 12.6123 83.8881 12.6123 83.6986 12.7083L81.0535 14.0485C80.5579 14.2995 79.9906 13.8697 80.0982 13.3247L80.5983 10.7907C80.641 10.5741 80.5738 10.3504 80.4188 10.1933L78.1987 7.9436C77.8266 7.5666 78.0217 6.9272 78.5408 6.822Z" fill="#FED67E"/>
</svg>
