<svg width="24" height="24" viewBox="0 0 24 24" fill="none" xmlns="http://www.w3.org/2000/svg">
<circle cx="12" cy="12" r="11.5" stroke="#E6E6E6"/>
<path d="M15.3335 10.1133C15.2086 9.98917 15.0396 9.91947 14.8635 9.91947C14.6873 9.91947 14.5184 9.98917 14.3935 10.1133L12.0001 12.4733L9.64013 10.1133C9.51522 9.98917 9.34625 9.91947 9.17013 9.91947C8.994 9.91947 8.82504 9.98917 8.70013 10.1133C8.63764 10.1753 8.58805 10.249 8.5542 10.3303C8.52036 10.4115 8.50293 10.4987 8.50293 10.5867C8.50293 10.6747 8.52036 10.7618 8.5542 10.8431C8.58805 10.9243 8.63764 10.998 8.70013 11.06L11.5268 13.8867C11.5888 13.9492 11.6625 13.9987 11.7437 14.0326C11.825 14.0664 11.9121 14.0839 12.0001 14.0839C12.0881 14.0839 12.1753 14.0664 12.2565 14.0326C12.3378 13.9987 12.4115 13.9492 12.4735 13.8867L15.3335 11.06C15.3959 10.998 15.4455 10.9243 15.4794 10.8431C15.5132 10.7618 15.5307 10.6747 15.5307 10.5867C15.5307 10.4987 15.5132 10.4115 15.4794 10.3303C15.4455 10.249 15.3959 10.1753 15.3335 10.1133Z" fill="#E6E6E6"/>
</svg>
