<svg width="80" height="19" viewBox="0 0 80 19" fill="none" xmlns="http://www.w3.org/2000/svg">
    <path d="M5.192 1.368H0.56V18H5.552C9.8 18 13.832 16.296 13.832 9.6C13.832 2.736 9.632 1.368 5.192 1.368ZM5.744 4.224C8.048 4.224 9.752 5.136 9.752 9.6C9.752 14.016 8.168 15.144 5.792 15.144H4.496V4.224H5.744ZM21.5448 0.959999C18.0888 0.959999 15.5448 2.832 15.5448 5.76C15.5448 8.232 16.9128 9.768 20.6328 10.92C23.0568 11.664 23.6808 12.216 23.6808 13.44C23.6808 14.712 22.6728 15.48 21.0408 15.48C19.3848 15.48 18.0648 14.88 16.8408 13.848L14.8488 16.032C16.2168 17.352 18.2808 18.408 21.1608 18.408C25.3128 18.408 27.7608 16.248 27.7608 13.152C27.7608 10.08 25.9608 8.784 22.8168 7.776C20.2248 6.96 19.6008 6.528 19.6008 5.472C19.6008 4.416 20.4648 3.84 21.8328 3.84C23.1768 3.84 24.3288 4.296 25.4808 5.232L27.3048 3.096C25.8408 1.704 24.0888 0.959999 21.5448 0.959999ZM44.9568 1.368H39.9648L37.6368 12.648L35.1408 1.368H30.1728L28.9248 18H32.7648L33.0528 11.544C33.1488 9.216 33.1488 7.152 32.9808 4.704L35.7168 16.248H39.4368L42.0048 4.704C41.8848 6.768 41.9328 9.168 42.0528 11.496L42.3408 18H46.2048L44.9568 1.368ZM49.88 14.064C48.656 14.064 47.696 15.048 47.696 16.224C47.696 17.424 48.656 18.408 49.88 18.408C51.08 18.408 52.04 17.424 52.04 16.224C52.04 15.048 51.08 14.064 49.88 14.064ZM61.0569 0.959999C56.5929 0.959999 53.0889 4.032 53.0889 9.672C53.0889 15.36 55.6329 18.408 60.7209 18.408C62.8089 18.408 64.9689 17.76 66.6969 16.656V8.424H60.3369L60.7209 11.208H62.8809V14.976C62.1849 15.36 61.4409 15.528 60.6249 15.528C58.3209 15.528 57.1689 14.04 57.1689 9.672C57.1689 5.544 58.8969 3.816 61.2249 3.816C62.5689 3.816 63.4809 4.224 64.6089 5.088L66.6009 3C65.2329 1.8 63.4809 0.959999 61.0569 0.959999ZM79.5256 1.368H69.3256V18H79.5256V15.168H73.2616V10.92H78.3736V8.16H73.2616V4.176H79.1176L79.5256 1.368Z" fill="#131313"/>
</svg>
