<svg width="14" height="12" viewBox="0 0 14 12" fill="none" xmlns="http://www.w3.org/2000/svg">
<path d="M6.62018 11.92C6.49743 11.8724 6.38529 11.801 6.29018 11.71L1.29019 6.71C1.19695 6.61676 1.12299 6.50607 1.07253 6.38425C1.02207 6.26243 0.996093 6.13186 0.996093 6C0.996093 5.7337 1.10188 5.4783 1.29019 5.29C1.38342 5.19676 1.49411 5.1228 1.61594 5.07234C1.73776 5.02188 1.86833 4.99591 2.00019 4.99591C2.26649 4.99591 2.52188 5.1017 2.71019 5.29L6.00019 8.59L6.00019 1C6.00019 0.734784 6.10554 0.48043 6.29308 0.292894C6.48062 0.105357 6.73497 2.50854e-07 7.00019 2.62447e-07C7.2654 2.7404e-07 7.51976 0.105357 7.70729 0.292894C7.89483 0.48043 8.00019 0.734784 8.00019 1L8.00019 8.59L11.2902 5.29C11.3831 5.19627 11.4937 5.12188 11.6156 5.07111C11.7375 5.02034 11.8682 4.9942 12.0002 4.9942C12.1322 4.9942 12.2629 5.02034 12.3848 5.07111C12.5066 5.12188 12.6172 5.19627 12.7102 5.29C12.8039 5.38296 12.8783 5.49356 12.9291 5.61542C12.9798 5.73728 13.006 5.86799 13.006 6C13.006 6.13201 12.9798 6.26272 12.9291 6.38458C12.8783 6.50644 12.8039 6.61704 12.7102 6.71L7.71019 11.71C7.61508 11.801 7.50294 11.8724 7.38019 11.92C7.13672 12.02 6.86365 12.02 6.62018 11.92Z" fill="#707477"/>
</svg>
