<svg width="18" height="18" viewBox="0 0 18 18" fill="none" xmlns="http://www.w3.org/2000/svg">
<path d="M11.7826 9.53247C12.5179 8.95397 13.0546 8.16066 13.318 7.26293C13.5815 6.36519 13.5586 5.40767 13.2525 4.52357C12.9464 3.63947 12.3723 2.87277 11.6102 2.33011C10.848 1.78746 9.93571 1.49585 9.00012 1.49585C8.06453 1.49585 7.1522 1.78746 6.39007 2.33011C5.62793 2.87277 5.05388 3.63947 4.74778 4.52357C4.44168 5.40767 4.41875 6.36519 4.68219 7.26293C4.94563 8.16066 5.48233 8.95397 6.21762 9.53247C4.95768 10.0373 3.85834 10.8745 3.03679 11.9549C2.21524 13.0353 1.70229 14.3185 1.55262 15.6675C1.54179 15.766 1.55046 15.8656 1.57814 15.9608C1.60582 16.0559 1.65197 16.1447 1.71395 16.222C1.83913 16.3781 2.02121 16.4781 2.22012 16.5C2.41903 16.5219 2.61849 16.4638 2.77461 16.3386C2.93074 16.2135 3.03074 16.0314 3.05262 15.8325C3.21731 14.3664 3.91638 13.0123 5.01628 12.0291C6.11618 11.0458 7.53979 10.5022 9.01512 10.5022C10.4904 10.5022 11.9141 11.0458 13.014 12.0291C14.1139 13.0123 14.8129 14.3664 14.9776 15.8325C14.998 16.0168 15.0859 16.187 15.2244 16.3102C15.363 16.4335 15.5422 16.5011 15.7276 16.5H15.8101C16.0067 16.4774 16.1864 16.3779 16.31 16.2234C16.4337 16.0689 16.4912 15.8717 16.4701 15.675C16.3197 14.3221 15.804 13.0357 14.9783 11.9536C14.1525 10.8715 13.0478 10.0346 11.7826 9.53247ZM9.00012 8.99997C8.40678 8.99997 7.82676 8.82403 7.33341 8.49438C6.84006 8.16474 6.45554 7.6962 6.22848 7.14802C6.00142 6.59984 5.94201 5.99664 6.05776 5.4147C6.17352 4.83276 6.45924 4.29821 6.8788 3.87865C7.29836 3.45909 7.83291 3.17337 8.41485 3.05762C8.99679 2.94186 9.59999 3.00127 10.1482 3.22833C10.6963 3.4554 11.1649 3.83991 11.4945 4.33326C11.8242 4.82661 12.0001 5.40663 12.0001 5.99997C12.0001 6.79562 11.684 7.55868 11.1214 8.12129C10.5588 8.6839 9.79577 8.99997 9.00012 8.99997Z" fill="#131313"/>
</svg>
