<svg width="132" height="24" viewBox="0 0 132 24" fill="none" xmlns="http://www.w3.org/2000/svg">
<path d="M3.811 10.233L7.81429 9.42162C8.09155 9.36543 8.33202 9.19445 8.47614 8.95104L11.1393 4.45328C11.5266 3.79927 12.473 3.79927 12.8603 4.45328L15.5234 8.95104C15.6676 9.19445 15.908 9.36543 16.1853 9.42162L20.1886 10.233C20.9673 10.3908 21.2598 11.3499 20.7017 11.9154L17.3716 15.2899C17.139 15.5256 17.0382 15.8611 17.1023 16.186L17.8525 19.987C18.0139 20.8046 17.1629 21.4493 16.4195 21.0726L12.4518 19.0624C12.1677 18.9184 11.832 18.9184 11.5478 19.0624L7.58011 21.0727C6.83665 21.4493 5.98569 20.8046 6.14707 19.987L6.89727 16.186C6.96138 15.8611 6.86054 15.5256 6.62797 15.2899L3.29786 11.9154C2.73977 11.3499 3.03229 10.3908 3.811 10.233Z" fill="#00B4FB"/>
<path d="M30.811 10.233L34.8143 9.42162C35.0915 9.36543 35.332 9.19445 35.4761 8.95104L38.1393 4.45328C38.5266 3.79927 39.473 3.79927 39.8603 4.45328L42.5234 8.95104C42.6676 9.19445 42.908 9.36543 43.1853 9.42162L47.1886 10.233C47.9673 10.3908 48.2598 11.3499 47.7017 11.9154L44.3716 15.2899C44.139 15.5256 44.0382 15.8611 44.1023 16.186L44.8525 19.987C45.0139 20.8046 44.1629 21.4493 43.4195 21.0726L39.4518 19.0624C39.1677 18.9184 38.832 18.9184 38.5478 19.0624L34.5801 21.0727C33.8367 21.4493 32.9857 20.8046 33.1471 19.987L33.8973 16.186C33.9614 15.8611 33.8605 15.5256 33.628 15.2899L30.2979 11.9154C29.7398 11.3499 30.0323 10.3908 30.811 10.233Z" fill="#00B4FB"/>
<path d="M57.811 10.233L61.8143 9.42162C62.0915 9.36543 62.332 9.19445 62.4761 8.95104L65.1393 4.45328C65.5266 3.79927 66.473 3.79927 66.8603 4.45328L69.5234 8.95104C69.6676 9.19445 69.908 9.36543 70.1853 9.42162L74.1886 10.233C74.9673 10.3908 75.2598 11.3499 74.7017 11.9154L71.3716 15.2899C71.139 15.5256 71.0382 15.8611 71.1023 16.186L71.8525 19.987C72.0139 20.8046 71.1629 21.4493 70.4195 21.0726L66.4518 19.0624C66.1677 18.9184 65.832 18.9184 65.5478 19.0624L61.5801 21.0727C60.8367 21.4493 59.9857 20.8046 60.1471 19.987L60.8973 16.186C60.9614 15.8611 60.8605 15.5256 60.628 15.2899L57.2979 11.9154C56.7398 11.3499 57.0323 10.3908 57.811 10.233Z" fill="#00B4FB"/>
<path d="M84.811 10.233L88.8143 9.42162C89.0915 9.36543 89.332 9.19445 89.4761 8.95104L92.1393 4.45328C92.5266 3.79927 93.473 3.79927 93.8603 4.45328L96.5234 8.95104C96.6676 9.19445 96.908 9.36543 97.1853 9.42162L101.189 10.233C101.967 10.3908 102.26 11.3499 101.702 11.9154L98.3716 15.2899C98.139 15.5256 98.0382 15.8611 98.1023 16.186L98.8525 19.987C99.0139 20.8046 98.1629 21.4493 97.4195 21.0726L93.4518 19.0624C93.1677 18.9184 92.832 18.9184 92.5478 19.0624L88.5801 21.0727C87.8367 21.4493 86.9857 20.8046 87.1471 19.987L87.8973 16.186C87.9614 15.8611 87.8605 15.5256 87.628 15.2899L84.2979 11.9154C83.7398 11.3499 84.0323 10.3908 84.811 10.233Z" fill="#00B4FB"/>
<path d="M111.811 10.233L115.814 9.42162C116.092 9.36543 116.332 9.19445 116.476 8.95104L119.139 4.45328C119.527 3.79927 120.473 3.79927 120.86 4.45328L123.523 8.95104C123.668 9.19445 123.908 9.36543 124.185 9.42162L128.189 10.233C128.967 10.3908 129.26 11.3499 128.702 11.9154L125.372 15.2899C125.139 15.5256 125.038 15.8611 125.102 16.186L125.852 19.987C126.014 20.8046 125.163 21.4493 124.419 21.0726L120.452 19.0624C120.168 18.9184 119.832 18.9184 119.548 19.0624L115.58 21.0727C114.837 21.4493 113.986 20.8046 114.147 19.987L114.897 16.186C114.961 15.8611 114.861 15.5256 114.628 15.2899L111.298 11.9154C110.74 11.3499 111.032 10.3908 111.811 10.233Z" fill="#00B4FB"/>
</svg>
