<svg width="1310" height="31" viewBox="0 0 1310 31" fill="none" xmlns="http://www.w3.org/2000/svg">
<path fill-rule="evenodd" clip-rule="evenodd" d="M745.251 1.92954C745.177 1.97256 745.092 1.9972 745 1.9972L705.623 1.9972C692.546 1.9972 680.001 7.17166 670.726 16.3905L656.762 30.2707C655.787 31.24 654.213 31.24 653.238 30.2707L639.274 16.3905C629.999 7.17165 617.454 1.99719 604.377 1.99719L565 1.99719C564.908 1.99719 564.823 1.97255 564.749 1.92953C564.676 1.97087 564.592 1.99448 564.503 1.99448H0.497134C0.222562 1.99448 0 1.77189 0 1.49732C0 1.22275 0.222585 1.00017 0.497157 1.00017H564.503C564.592 1.00017 564.676 1.02373 564.748 1.06498C564.822 1.02188 564.908 0.997192 565 0.997192H604.377C617.718 0.997195 630.517 6.27618 639.979 15.6813L653.943 29.5615C654.528 30.1431 655.472 30.1431 656.057 29.5615L670.021 15.6813C679.483 6.27619 692.282 0.997198 705.623 0.997198L745 0.9972C745.092 0.9972 745.178 1.02189 745.252 1.06499C745.324 1.02373 745.408 1.00017 745.497 1.00017H1309.5C1309.78 1.00017 1310 1.22275 1310 1.49732C1310 1.77189 1309.78 1.99448 1309.5 1.99448H745.497C745.408 1.99448 745.324 1.97087 745.251 1.92954Z" fill="url(#paint0_linear)"/>
<defs>
<linearGradient id="paint0_linear" x1="655" y1="-6.95744" x2="655" y2="30.9977" gradientUnits="userSpaceOnUse">
<stop stop-color="#E6E6E6" stop-opacity="0"/>
<stop offset="1" stop-color="#E6E6E6"/>
</linearGradient>
</defs>
</svg>
